<svg width="27" height="15" viewBox="0 0 27 15" fill="none" xmlns="http://www.w3.org/2000/svg">
<path d="M26.7071 2.20711C27.0976 1.81658 27.0976 1.18342 26.7071 0.792894C26.3166 0.40237 25.6834 0.40237 25.2929 0.792894L26.7071 2.20711ZM13.5 14L12.7929 14.7071C13.1834 15.0976 13.8166 15.0976 14.2071 14.7071L13.5 14ZM1.70711 0.792895C1.31658 0.402371 0.683418 0.402371 0.292892 0.792895C-0.0976319 1.18342 -0.0976318 1.81658 0.292892 2.20711L1.70711 0.792895ZM25.2929 0.792894L12.7929 13.2929L14.2071 14.7071L26.7071 2.20711L25.2929 0.792894ZM14.2071 13.2929L1.70711 0.792895L0.292892 2.20711L12.7929 14.7071L14.2071 13.2929Z" fill="white"/>
</svg>
