<svg width="100" height="100" viewBox="0 0 100 100" fill="none" xmlns="http://www.w3.org/2000/svg">
<path d="M52.539 65.5489C51.7148 65.6101 50.8828 65.6407 50.043 65.6407C49.0215 65.6407 48.0117 65.5938 47.0137 65.5059C42.0763 65.0682 37.2918 63.5686 32.988 61.1097C28.6841 58.6509 24.9625 55.2908 22.0781 51.2598C22.0021 51.1514 21.8999 51.0641 21.7809 51.0061C21.662 50.9481 21.5302 50.9212 21.3981 50.928C21.2659 50.9349 21.1376 50.9752 21.0253 51.0452C20.9129 51.1152 20.8202 51.2125 20.7558 51.3282L6.69334 76.6016C6.15819 77.5782 6.0742 78.75 6.63866 79.7032C6.93249 80.1757 7.34182 80.5657 7.82807 80.8364C8.31431 81.107 8.86147 81.2494 9.41795 81.25H24.6523C25.183 81.2304 25.7093 81.3527 26.1769 81.6044C26.6446 81.8561 27.0366 82.2279 27.3125 82.6817L34.8633 95.3125C35.1396 95.7812 35.5317 96.171 36.0019 96.4446C36.4722 96.7182 37.0048 96.8664 37.5488 96.875C38.709 96.8106 39.9101 96.0567 40.3926 95L53.3047 66.6504C53.3604 66.5273 53.3833 66.3917 53.3709 66.2571C53.3586 66.1225 53.3116 65.9934 53.2345 65.8824C53.1573 65.7714 53.0527 65.6823 52.9308 65.6238C52.8089 65.5654 52.6739 65.5395 52.539 65.5489Z" fill="white"/>
<path d="M93.2891 76.539L79.3183 51.3105C79.2538 51.196 79.1614 51.0996 79.0497 51.0303C78.9381 50.961 78.8107 50.921 78.6794 50.914C78.5482 50.9069 78.4173 50.9332 78.2989 50.9902C78.1804 51.0472 78.0783 51.1332 78.0019 51.2401C74.1599 56.6232 68.8505 60.7875 62.707 63.2362C61.9527 63.5335 61.3425 64.1109 61.0039 64.8476L53.8047 80.6874C53.712 80.8896 53.664 81.1095 53.664 81.3319C53.664 81.5544 53.712 81.7742 53.8047 81.9765L59.7168 94.9823C60.1953 96.039 61.3945 96.8105 62.5527 96.8749C63.0971 96.8615 63.629 96.7086 64.0975 96.431C64.566 96.1533 64.9554 95.7601 65.2285 95.289L72.7539 82.6757C73.3183 81.7284 74.3418 81.244 75.4453 81.2499H90.8301C92.1328 81.2499 93.1191 80.5702 93.5644 79.2968C93.7209 78.8446 93.7774 78.3638 93.7298 77.8876C93.6823 77.4115 93.5319 76.9513 93.2891 76.539Z" fill="white"/>
<path d="M50.0508 40.625C55.2295 40.625 59.4277 36.4277 59.4277 31.25C59.4277 26.0723 55.2295 21.875 50.0508 21.875C44.872 21.875 40.6738 26.0723 40.6738 31.25C40.6738 36.4277 44.872 40.625 50.0508 40.625Z" fill="white"/>
<path d="M50.0508 3.125C34.5391 3.125 21.9258 15.7402 21.9258 31.25C21.9258 46.7598 34.5449 59.375 50.0508 59.375C65.5566 59.375 78.1758 46.7578 78.1758 31.25C78.1758 15.7422 65.5605 3.125 50.0508 3.125ZM50.0508 46.875C46.9604 46.875 43.9395 45.9586 41.37 44.2417C38.8005 42.5248 36.7978 40.0845 35.6152 37.2294C34.4325 34.3743 34.1231 31.2327 34.726 28.2017C35.3289 25.1708 36.817 22.3867 39.0022 20.2015C41.1874 18.0163 43.9715 16.5281 47.0025 15.9252C50.0334 15.3223 53.1751 15.6318 56.0302 16.8144C58.8853 17.997 61.3256 19.9997 63.0425 22.5692C64.7594 25.1387 65.6758 28.1597 65.6758 31.25C65.6706 35.3924 64.0227 39.3637 61.0936 42.2928C58.1645 45.222 54.1932 46.8698 50.0508 46.875Z" fill="white"/>
</svg>
