<svg width="28" height="29" viewBox="0 0 28 29" fill="none" xmlns="http://www.w3.org/2000/svg">
<path d="M19.104 4.29539C20.4565 4.29943 21.7526 4.83852 22.709 5.79494C23.6654 6.75135 24.2045 8.04736 24.2085 9.39992V19.6079C24.2045 20.9605 23.6654 22.2565 22.709 23.2129C21.7526 24.1693 20.4565 24.7084 19.104 24.7124H8.89602C7.54345 24.7084 6.24744 24.1693 5.29103 23.2129C4.33462 22.2565 3.79552 20.9605 3.79148 19.6079V9.39992C3.79552 8.04736 4.33462 6.75135 5.29103 5.79494C6.24744 4.83852 7.54345 4.29943 8.89602 4.29539H19.104ZM19.104 2.25391H8.89602C4.96562 2.25391 1.75 5.46953 1.75 9.39992V19.6079C1.75 23.5383 4.96562 26.7539 8.89602 26.7539H19.104C23.0344 26.7539 26.25 23.5383 26.25 19.6079V9.39992C26.25 5.46953 23.0344 2.25391 19.104 2.25391Z" fill="white"/>
<path d="M20.6348 9.40039C20.3319 9.40039 20.0359 9.31059 19.7841 9.14233C19.5322 8.97407 19.336 8.73492 19.2201 8.45512C19.1042 8.17533 19.0739 7.86744 19.1329 7.57041C19.192 7.27338 19.3379 7.00053 19.552 6.78638C19.7662 6.57223 20.039 6.4264 20.336 6.36731C20.6331 6.30823 20.941 6.33855 21.2208 6.45445C21.5005 6.57035 21.7397 6.76661 21.908 7.01842C22.0762 7.27024 22.166 7.56629 22.166 7.86914C22.1664 8.07035 22.1271 8.26966 22.0503 8.45564C21.9735 8.64161 21.8608 8.81059 21.7185 8.95286C21.5762 9.09514 21.4072 9.20791 21.2213 9.28471C21.0353 9.36151 20.836 9.40082 20.6348 9.40039Z" fill="white"/>
<path d="M14 10.4204C14.8076 10.4204 15.5972 10.6599 16.2687 11.1086C16.9402 11.5573 17.4636 12.195 17.7727 12.9412C18.0818 13.6874 18.1626 14.5084 18.0051 15.3006C17.8475 16.0927 17.4586 16.8203 16.8875 17.3914C16.3164 17.9625 15.5888 18.3514 14.7967 18.509C14.0045 18.6665 13.1835 18.5857 12.4373 18.2766C11.6911 17.9675 11.0534 17.4441 10.6047 16.7726C10.156 16.1011 9.91649 15.3115 9.91649 14.5039C9.91764 13.4212 10.3482 12.3833 11.1138 11.6177C11.8794 10.8521 12.9173 10.4215 14 10.4204ZM14 8.37891C12.7886 8.37891 11.6044 8.73813 10.5971 9.41115C9.58988 10.0842 8.80483 11.0408 8.34124 12.16C7.87765 13.2792 7.75636 14.5107 7.99269 15.6988C8.22903 16.887 8.81238 17.9783 9.66897 18.8349C10.5256 19.6915 11.6169 20.2749 12.8051 20.5112C13.9932 20.7476 15.2247 20.6263 16.3439 20.1627C17.4631 19.6991 18.4197 18.914 19.0928 17.9068C19.7658 16.8995 20.125 15.7153 20.125 14.5039C20.125 12.8795 19.4797 11.3215 18.331 10.1729C17.1824 9.02422 15.6245 8.37891 14 8.37891Z" fill="white"/>
</svg>
