<svg width="28" height="29" viewBox="0 0 28 29" fill="none" xmlns="http://www.w3.org/2000/svg">
<path d="M24.2905 2.25391H3.84344C2.72617 2.25391 1.75 3.05781 1.75 4.16195V24.6545C1.75 25.7646 2.72617 26.7539 3.84344 26.7539H24.2845C25.4078 26.7539 26.25 25.758 26.25 24.6545V4.16195C26.2566 3.05781 25.4078 2.25391 24.2905 2.25391ZM9.34445 22.6759H5.83461V11.763H9.34445V22.6759ZM7.71094 10.1037H7.68578C6.5625 10.1037 5.83516 9.26758 5.83516 8.22086C5.83516 7.155 6.58164 6.33852 7.73008 6.33852C8.87852 6.33852 9.58125 7.14898 9.60641 8.22086C9.60586 9.26758 8.87852 10.1037 7.71094 10.1037ZM22.172 22.6759H18.6621V16.7089C18.6621 15.2794 18.1513 14.3027 16.8815 14.3027C15.9113 14.3027 15.3371 14.9589 15.0817 15.5982C14.986 15.8279 14.9603 16.1407 14.9603 16.4601V22.6759H11.4505V11.763H14.9603V13.2816C15.4711 12.5543 16.269 11.5076 18.1256 11.5076C20.4296 11.5076 22.1725 13.0263 22.1725 16.3004L22.172 22.6759Z" fill="white"/>
</svg>
