<svg width="96" height="36" viewBox="0 0 96 36" fill="none" xmlns="http://www.w3.org/2000/svg">
<g clip-path="url(#clip0_226_6783)">
<rect width="35.5447" height="35.5447" fill="#1D4ED8"/>
<path d="M16.7052 3.22042L15.3447 2.31363C14.2187 1.64315 12.968 1.20878 11.6688 1.03697C10.3696 0.86516 9.04906 0.959495 7.78748 1.31424C2.63629 2.75576 -0.373428 8.10456 1.0681 13.2557C2.50962 18.4069 7.85842 21.4167 13.0096 19.9751C14.9393 19.435 16.6542 18.31 17.9183 16.7551C19.1823 15.2002 19.9334 13.2918 20.0682 11.2924" stroke="white" stroke-width="2.05847" stroke-miterlimit="10" stroke-linecap="round"/>
<path d="M18.33 1.11131L19.2754 4.48946C19.3116 4.61909 19.2949 4.75783 19.2289 4.87515C19.1629 4.99246 19.053 5.07875 18.9234 5.11503L15.5452 6.06038C15.1096 6.18229 14.7442 5.71697 14.9659 5.32286L17.3989 0.998969C17.6205 0.604247 18.2081 0.67568 18.33 1.11131Z" fill="white"/>
<path d="M17.3241 30.082L16.4727 28.6862C15.848 27.5342 15.4642 26.2671 15.3448 24.962C15.2253 23.657 15.3726 22.3412 15.7778 21.0949C17.4252 16.0058 22.8906 13.2135 27.9797 14.8609C33.0688 16.5083 35.8611 21.9737 34.2138 27.0628C33.5965 28.9692 32.4035 30.6375 30.7991 31.8381C29.1946 33.0386 27.2575 33.7124 25.2544 33.7667" stroke="white" stroke-width="2.05847" stroke-miterlimit="10" stroke-linecap="round"/>
<path d="M15.0892 31.6721L18.218 32.6849C18.3381 32.7238 18.4687 32.7134 18.5811 32.656C18.6935 32.5986 18.7784 32.4988 18.8173 32.3788L19.8301 29.2499C19.9608 28.8464 19.5386 28.4866 19.1611 28.6795L15.019 30.7957C14.6409 30.9884 14.6857 31.5415 15.0892 31.6721Z" fill="white"/>
<path d="M8.75 36.0234V20.0703H11.3231V36.0234H8.75Z" fill="white"/>
<path d="M9.99137 17.788C9.4868 17.788 9.06332 17.6258 8.72093 17.3015C8.39656 16.9771 8.23438 16.5806 8.23438 16.1121C8.23438 15.6256 8.39656 15.2201 8.72093 14.8957C9.06332 14.5714 9.4868 14.4092 9.99137 14.4092C10.4959 14.4092 10.9104 14.5714 11.2348 14.8957C11.5772 15.2021 11.7484 15.5895 11.7484 16.0581C11.7484 16.5446 11.5862 16.9591 11.2618 17.3015C10.9374 17.6258 10.514 17.788 9.99137 17.788Z" fill="white"/>
</g>
<path d="M40.4513 35.173V10.5473H44.9118V35.173H40.4513ZM42.6815 5.80796C41.8142 5.80796 41.0863 5.52918 40.4977 4.97162C39.9402 4.41405 39.6614 3.73258 39.6614 2.92721C39.6614 2.09087 39.9402 1.39391 40.4977 0.836347C41.0863 0.278782 41.8142 0 42.6815 0C43.5488 0 44.2613 0.278782 44.8188 0.836347C45.4074 1.36293 45.7017 2.02891 45.7017 2.83429C45.7017 3.67063 45.4229 4.38308 44.8653 4.97162C44.3077 5.52918 43.5798 5.80796 42.6815 5.80796Z" fill="white"/>
<path d="M61.8848 35.4518C59.4068 35.4518 57.4863 34.7858 56.1233 33.4539C54.7604 32.1219 54.0789 30.2169 54.0789 27.7388V5.15747H58.5394V27.553C58.5394 28.8849 58.8647 29.9071 59.5152 30.6196C60.1966 31.332 61.1569 31.6882 62.3959 31.6882C63.7898 31.6882 64.9514 31.3011 65.8807 30.5267L67.2746 33.7327C66.5931 34.3212 65.7723 34.7549 64.812 35.0336C63.8828 35.3124 62.907 35.4518 61.8848 35.4518ZM49.8972 14.2179V10.5473H65.6019V14.2179H49.8972Z" fill="white"/>
<path d="M83.0363 35.5447C80.4034 35.5447 78.1267 35.1575 76.2062 34.3831C74.2857 33.6087 72.7988 32.5091 71.7457 31.0842C70.6925 29.6284 70.1659 27.9247 70.1659 25.9732C70.1659 24.0527 70.6615 22.4265 71.6527 21.0945C72.6749 19.7316 74.1463 18.7094 76.0668 18.0279C77.9873 17.3155 80.3105 16.9593 83.0363 16.9593C85.7622 16.9593 88.0854 17.3155 90.0059 18.0279C91.9574 18.7094 93.4442 19.7316 94.4664 21.0945C95.4886 22.4575 95.9997 24.0837 95.9997 25.9732C95.9997 27.9247 95.4731 29.6284 94.4199 31.0842C93.3668 32.5091 91.8644 33.6087 89.913 34.3831C87.9615 35.1575 85.6693 35.5447 83.0363 35.5447ZM83.0363 31.7812C85.6383 31.7812 87.6672 31.2546 89.1231 30.2014C90.6099 29.1173 91.3533 27.6614 91.3533 25.8338C91.3533 24.0372 90.6099 22.6278 89.1231 21.6056C87.6672 20.5524 85.6383 20.0259 83.0363 20.0259C80.4653 20.0259 78.4519 20.5524 76.9961 21.6056C75.5402 22.6278 74.8123 24.0372 74.8123 25.8338C74.8123 27.6614 75.5402 29.1173 76.9961 30.2014C78.4519 31.2546 80.4653 31.7812 83.0363 31.7812ZM83.0363 19.4683C80.5583 19.4683 78.4519 19.143 76.7173 18.4926C74.9826 17.8111 73.6507 16.8508 72.7214 15.6118C71.7921 14.3418 71.3275 12.8395 71.3275 11.1048C71.3275 9.27725 71.8076 7.71298 72.7679 6.41199C73.7591 5.08003 75.1375 4.05783 76.9031 3.34539C78.6687 2.63294 80.7131 2.27672 83.0363 2.27672C85.3905 2.27672 87.4504 2.63294 89.216 3.34539C90.9816 4.05783 92.36 5.08003 93.3513 6.41199C94.3425 7.71298 94.8381 9.27725 94.8381 11.1048C94.8381 12.8395 94.3735 14.3418 93.4442 15.6118C92.5149 16.8508 91.1675 17.8111 89.4019 18.4926C87.6362 19.143 85.5144 19.4683 83.0363 19.4683ZM83.0363 16.4946C85.2976 16.4946 87.0632 16.03 88.3332 15.1007C89.6342 14.1714 90.2847 12.9014 90.2847 11.2907C90.2847 9.64896 89.6187 8.36347 88.2867 7.43419C86.9548 6.50492 85.2046 6.04028 83.0363 6.04028C80.868 6.04028 79.1334 6.50492 77.8324 7.43419C76.5624 8.36347 75.9274 9.64896 75.9274 11.2907C75.9274 12.9014 76.5469 14.1714 77.7859 15.1007C79.0559 16.03 80.8061 16.4946 83.0363 16.4946Z" fill="white"/>
<defs>
<clipPath id="clip0_226_6783">
<rect width="35.5447" height="35.5447" fill="white"/>
</clipPath>
</defs>
</svg>
