<svg width="45" height="39" viewBox="0 0 45 39" fill="none" xmlns="http://www.w3.org/2000/svg">
<path d="M17.9089 0.829994L11.1589 28.235L9.53895 20.405C12.1489 20.405 14.3089 21.215 16.0189 22.835C17.7289 24.455 18.5839 26.615 18.5839 29.315C18.5839 32.015 17.7289 34.22 16.0189 35.93C14.3089 37.64 12.1939 38.495 9.67395 38.495C7.06395 38.495 4.90395 37.64 3.19395 35.93C1.48395 34.13 0.628946 31.925 0.628946 29.315C0.628946 28.415 0.673946 27.56 0.763946 26.75C0.943946 25.94 1.21395 24.995 1.57395 23.915C1.93395 22.745 2.42895 21.35 3.05895 19.73L9.40395 0.829994H17.9089ZM43.4239 0.829994L36.6739 28.235L35.0539 20.405C37.6639 20.405 39.8239 21.215 41.5339 22.835C43.2439 24.455 44.0989 26.615 44.0989 29.315C44.0989 32.015 43.2439 34.22 41.5339 35.93C39.8239 37.64 37.7089 38.495 35.1889 38.495C32.5789 38.495 30.4189 37.64 28.7089 35.93C26.9989 34.13 26.1439 31.925 26.1439 29.315C26.1439 28.415 26.1889 27.56 26.2789 26.75C26.4589 25.94 26.7289 24.995 27.0889 23.915C27.4489 22.745 27.9439 21.35 28.5739 19.73L34.9189 0.829994H43.4239Z" fill="white"/>
</svg>
