<svg width="60" height="60" viewBox="0 0 60 60" fill="none" xmlns="http://www.w3.org/2000/svg">
<rect width="60" height="60" rx="30" fill="#1D4ED8"/>
<path d="M16.2929 35.7929C15.9024 36.1834 15.9024 36.8166 16.2929 37.2071C16.6834 37.5976 17.3166 37.5976 17.7071 37.2071L16.2929 35.7929ZM29.5 24L30.2071 23.2929C29.8166 22.9024 29.1834 22.9024 28.7929 23.2929L29.5 24ZM41.2929 37.2071C41.6834 37.5976 42.3166 37.5976 42.7071 37.2071C43.0976 36.8166 43.0976 36.1834 42.7071 35.7929L41.2929 37.2071ZM17.7071 37.2071L30.2071 24.7071L28.7929 23.2929L16.2929 35.7929L17.7071 37.2071ZM28.7929 24.7071L41.2929 37.2071L42.7071 35.7929L30.2071 23.2929L28.7929 24.7071Z" fill="white"/>
</svg>
