<svg width="28" height="29" viewBox="0 0 28 29" fill="none" xmlns="http://www.w3.org/2000/svg">
<path d="M27.125 6.4922C26.1403 6.92005 25.0985 7.20192 24.0324 7.32892C25.1528 6.67287 25.9953 5.63063 26.402 4.39767C25.3428 5.01705 24.1859 5.45164 22.9808 5.68282C22.4733 5.151 21.863 4.72793 21.187 4.43931C20.511 4.15069 19.7833 4.00256 19.0482 4.00392C16.0721 4.00392 13.6637 6.37735 13.6637 9.30313C13.6616 9.7101 13.7082 10.1159 13.8026 10.5117C11.6685 10.4117 9.5788 9.86728 7.66718 8.91335C5.75555 7.95942 4.06409 6.61697 2.70102 4.97188C2.22281 5.77804 1.96992 6.69785 1.96875 7.63517C1.96875 9.47266 2.92742 11.0969 4.375 12.0484C3.51735 12.0281 2.67728 11.8011 1.92609 11.3867V11.4524C1.92609 14.0227 3.78547 16.1609 6.24641 16.6477C5.78363 16.771 5.30675 16.8335 4.82781 16.8336C4.48797 16.8342 4.14891 16.8012 3.81555 16.7352C4.49969 18.8406 6.49086 20.3719 8.84953 20.4156C6.93294 21.8927 4.57987 22.691 2.16016 22.6852C1.73065 22.6845 1.30154 22.659 0.875 22.6086C3.33658 24.1804 6.19798 25.0119 9.11859 25.0039C19.0367 25.0039 24.4552 16.9266 24.4552 9.9211C24.4552 9.69142 24.4491 9.46173 24.4382 9.23751C25.4899 8.48942 26.3997 7.55976 27.125 6.4922Z" fill="white"/>
</svg>
